<mxfile host="app.diagrams.net" modified="2024-05-16T12:15:12.800Z" agent="Mozilla/5.0 (Windows NT 10.0; Win64; x64) AppleWebKit/537.36 (KHTML, like Gecko) Chrome/124.0.0.0 Safari/537.36 Edg/124.0.0.0" version="24.4.0" etag="PgJH5JM1OeuJ9e2cAg8z" type="device">
  <diagram id="pY5Si_UfclAkxcF6uFta" name="第 1 页">
    <mxGraphModel dx="2470" dy="1832" grid="0" gridSize="10" guides="1" tooltips="1" connect="1" arrows="1" fold="1" page="0" pageScale="1" pageWidth="3300" pageHeight="4681" math="0" shadow="0">
      <root>
        <mxCell id="0" />
        <mxCell id="1" parent="0" />
        <mxCell id="UGxQdcHlr63eqAwbkDjl-3" value="学生" style="text;html=1;align=center;verticalAlign=middle;whiteSpace=wrap;rounded=0;fontSize=17;" vertex="1" parent="1">
          <mxGeometry x="-262" y="-588" width="60" height="30" as="geometry" />
        </mxCell>
        <mxCell id="UGxQdcHlr63eqAwbkDjl-4" value="&lt;font style=&quot;font-size: 17px;&quot;&gt;开始&lt;/font&gt;" style="ellipse;whiteSpace=wrap;html=1;fontSize=17;" vertex="1" parent="1">
          <mxGeometry x="-469" y="-549" width="97" height="49" as="geometry" />
        </mxCell>
        <mxCell id="UGxQdcHlr63eqAwbkDjl-5" value="" style="endArrow=classic;html=1;rounded=0;fontSize=17;startSize=8;endSize=8;curved=1;exitX=1;exitY=0.5;exitDx=0;exitDy=0;entryX=0;entryY=0.5;entryDx=0;entryDy=0;" edge="1" parent="1" source="UGxQdcHlr63eqAwbkDjl-4" target="UGxQdcHlr63eqAwbkDjl-11">
          <mxGeometry width="50" height="50" relative="1" as="geometry">
            <mxPoint x="-240" y="-583" as="sourcePoint" />
            <mxPoint x="-232.00000000000023" y="-540" as="targetPoint" />
          </mxGeometry>
        </mxCell>
        <mxCell id="UGxQdcHlr63eqAwbkDjl-8" style="edgeStyle=none;curved=1;rounded=0;orthogonalLoop=1;jettySize=auto;html=1;entryX=0.5;entryY=0;entryDx=0;entryDy=0;fontSize=17;startSize=8;endSize=8;" edge="1" parent="1">
          <mxGeometry relative="1" as="geometry">
            <mxPoint x="-232.00000000000023" y="-540" as="sourcePoint" />
            <mxPoint x="-232.00000000000023" y="-540" as="targetPoint" />
          </mxGeometry>
        </mxCell>
        <mxCell id="UGxQdcHlr63eqAwbkDjl-11" value="登录" style="rounded=0;whiteSpace=wrap;html=1;fontSize=17;" vertex="1" parent="1">
          <mxGeometry x="-283.5" y="-549" width="103" height="49" as="geometry" />
        </mxCell>
        <mxCell id="UGxQdcHlr63eqAwbkDjl-12" style="edgeStyle=none;curved=1;rounded=0;orthogonalLoop=1;jettySize=auto;html=1;entryX=0.5;entryY=0;entryDx=0;entryDy=0;fontSize=17;startSize=8;endSize=8;" edge="1" parent="1" source="UGxQdcHlr63eqAwbkDjl-11" target="UGxQdcHlr63eqAwbkDjl-11">
          <mxGeometry relative="1" as="geometry" />
        </mxCell>
        <mxCell id="UGxQdcHlr63eqAwbkDjl-15" style="edgeStyle=none;curved=1;rounded=0;orthogonalLoop=1;jettySize=auto;html=1;entryX=0.5;entryY=0;entryDx=0;entryDy=0;fontSize=17;startSize=8;endSize=8;" edge="1" parent="1" source="UGxQdcHlr63eqAwbkDjl-11" target="UGxQdcHlr63eqAwbkDjl-11">
          <mxGeometry relative="1" as="geometry" />
        </mxCell>
        <mxCell id="UGxQdcHlr63eqAwbkDjl-16" value="是否注册过" style="rhombus;whiteSpace=wrap;html=1;fontSize=17;" vertex="1" parent="1">
          <mxGeometry x="-259" y="-477" width="54" height="53" as="geometry" />
        </mxCell>
        <mxCell id="UGxQdcHlr63eqAwbkDjl-17" value="" style="endArrow=classic;html=1;rounded=0;fontSize=17;startSize=8;endSize=8;curved=1;entryX=0.5;entryY=0;entryDx=0;entryDy=0;exitX=0.5;exitY=1;exitDx=0;exitDy=0;" edge="1" parent="1" source="UGxQdcHlr63eqAwbkDjl-11" target="UGxQdcHlr63eqAwbkDjl-16">
          <mxGeometry width="50" height="50" relative="1" as="geometry">
            <mxPoint x="-233" y="-500" as="sourcePoint" />
            <mxPoint x="-183" y="-550" as="targetPoint" />
          </mxGeometry>
        </mxCell>
        <mxCell id="UGxQdcHlr63eqAwbkDjl-18" value="" style="endArrow=classic;html=1;rounded=0;fontSize=17;startSize=8;endSize=8;curved=1;exitX=1;exitY=0.5;exitDx=0;exitDy=0;entryX=0;entryY=0.5;entryDx=0;entryDy=0;" edge="1" parent="1" source="UGxQdcHlr63eqAwbkDjl-16" target="UGxQdcHlr63eqAwbkDjl-21">
          <mxGeometry width="50" height="50" relative="1" as="geometry">
            <mxPoint x="-203" y="-450" as="sourcePoint" />
            <mxPoint x="-158" y="-450" as="targetPoint" />
          </mxGeometry>
        </mxCell>
        <mxCell id="UGxQdcHlr63eqAwbkDjl-19" value="N" style="edgeLabel;html=1;align=center;verticalAlign=middle;resizable=0;points=[];fontSize=17;" vertex="1" connectable="0" parent="UGxQdcHlr63eqAwbkDjl-18">
          <mxGeometry x="-0.2488" y="-1" relative="1" as="geometry">
            <mxPoint as="offset" />
          </mxGeometry>
        </mxCell>
        <mxCell id="UGxQdcHlr63eqAwbkDjl-20" value="" style="endArrow=classic;html=1;rounded=0;fontSize=17;startSize=8;endSize=8;curved=1;entryX=0.5;entryY=0;entryDx=0;entryDy=0;" edge="1" parent="1" target="UGxQdcHlr63eqAwbkDjl-23">
          <mxGeometry width="50" height="50" relative="1" as="geometry">
            <mxPoint x="-232.59" y="-424" as="sourcePoint" />
            <mxPoint x="-232.59" y="-389" as="targetPoint" />
          </mxGeometry>
        </mxCell>
        <mxCell id="UGxQdcHlr63eqAwbkDjl-21" value="注册" style="rounded=0;whiteSpace=wrap;html=1;fontSize=17;" vertex="1" parent="1">
          <mxGeometry x="-159" y="-475" width="103" height="49" as="geometry" />
        </mxCell>
        <mxCell id="UGxQdcHlr63eqAwbkDjl-22" style="edgeStyle=none;curved=1;rounded=0;orthogonalLoop=1;jettySize=auto;html=1;entryX=0;entryY=0.5;entryDx=0;entryDy=0;fontSize=17;startSize=8;endSize=8;" edge="1" parent="1" source="UGxQdcHlr63eqAwbkDjl-21" target="UGxQdcHlr63eqAwbkDjl-21">
          <mxGeometry relative="1" as="geometry" />
        </mxCell>
        <mxCell id="UGxQdcHlr63eqAwbkDjl-23" value="浏览商品" style="rounded=0;whiteSpace=wrap;html=1;fontSize=17;" vertex="1" parent="1">
          <mxGeometry x="-283.5" y="-399" width="103" height="49" as="geometry" />
        </mxCell>
        <mxCell id="UGxQdcHlr63eqAwbkDjl-26" value="" style="endArrow=classic;html=1;rounded=0;fontSize=17;startSize=8;endSize=8;exitX=0.5;exitY=0;exitDx=0;exitDy=0;edgeStyle=orthogonalEdgeStyle;entryX=1;entryY=0.5;entryDx=0;entryDy=0;" edge="1" parent="1" source="UGxQdcHlr63eqAwbkDjl-21" target="UGxQdcHlr63eqAwbkDjl-11">
          <mxGeometry width="50" height="50" relative="1" as="geometry">
            <mxPoint x="-107" y="-474" as="sourcePoint" />
            <mxPoint x="-107" y="-556" as="targetPoint" />
            <Array as="points">
              <mxPoint x="-107" y="-524" />
            </Array>
          </mxGeometry>
        </mxCell>
        <mxCell id="UGxQdcHlr63eqAwbkDjl-30" value="" style="endArrow=classic;html=1;rounded=0;fontSize=17;startSize=8;endSize=8;curved=1;entryX=0.5;entryY=0;entryDx=0;entryDy=0;" edge="1" parent="1" source="UGxQdcHlr63eqAwbkDjl-23" target="UGxQdcHlr63eqAwbkDjl-31">
          <mxGeometry width="50" height="50" relative="1" as="geometry">
            <mxPoint x="-232" y="-339" as="sourcePoint" />
            <mxPoint x="-232" y="-287" as="targetPoint" />
          </mxGeometry>
        </mxCell>
        <mxCell id="UGxQdcHlr63eqAwbkDjl-31" value="选中商品" style="rhombus;whiteSpace=wrap;html=1;fontSize=17;" vertex="1" parent="1">
          <mxGeometry x="-259" y="-318" width="54" height="53" as="geometry" />
        </mxCell>
        <mxCell id="UGxQdcHlr63eqAwbkDjl-32" value="" style="endArrow=classic;html=1;rounded=0;fontSize=17;startSize=8;endSize=8;curved=1;exitX=0.5;exitY=1;exitDx=0;exitDy=0;entryX=0.5;entryY=0;entryDx=0;entryDy=0;" edge="1" parent="1" source="UGxQdcHlr63eqAwbkDjl-31" target="UGxQdcHlr63eqAwbkDjl-34">
          <mxGeometry width="50" height="50" relative="1" as="geometry">
            <mxPoint x="-228" y="-247" as="sourcePoint" />
            <mxPoint x="-232" y="-222" as="targetPoint" />
          </mxGeometry>
        </mxCell>
        <mxCell id="UGxQdcHlr63eqAwbkDjl-34" value="加入购物车" style="rounded=0;whiteSpace=wrap;html=1;fontSize=17;" vertex="1" parent="1">
          <mxGeometry x="-283.5" y="-233" width="103" height="49" as="geometry" />
        </mxCell>
        <mxCell id="UGxQdcHlr63eqAwbkDjl-35" value="" style="endArrow=classic;html=1;rounded=0;fontSize=17;startSize=8;endSize=8;curved=1;exitX=0.5;exitY=1;exitDx=0;exitDy=0;entryX=0.5;entryY=0;entryDx=0;entryDy=0;" edge="1" parent="1" source="UGxQdcHlr63eqAwbkDjl-34" target="UGxQdcHlr63eqAwbkDjl-38">
          <mxGeometry width="50" height="50" relative="1" as="geometry">
            <mxPoint x="-232" y="-179" as="sourcePoint" />
            <mxPoint x="-232" y="-137" as="targetPoint" />
          </mxGeometry>
        </mxCell>
        <mxCell id="UGxQdcHlr63eqAwbkDjl-38" value="是否购买" style="rhombus;whiteSpace=wrap;html=1;fontSize=17;" vertex="1" parent="1">
          <mxGeometry x="-259" y="-149" width="54" height="53" as="geometry" />
        </mxCell>
        <mxCell id="UGxQdcHlr63eqAwbkDjl-40" value="" style="endArrow=classic;html=1;rounded=0;fontSize=17;startSize=8;endSize=8;curved=1;exitX=1;exitY=0.5;exitDx=0;exitDy=0;entryX=0;entryY=0.5;entryDx=0;entryDy=0;" edge="1" parent="1" source="UGxQdcHlr63eqAwbkDjl-31" target="UGxQdcHlr63eqAwbkDjl-41">
          <mxGeometry width="50" height="50" relative="1" as="geometry">
            <mxPoint x="-179" y="-285" as="sourcePoint" />
            <mxPoint x="4" y="-291" as="targetPoint" />
          </mxGeometry>
        </mxCell>
        <mxCell id="UGxQdcHlr63eqAwbkDjl-42" style="edgeStyle=none;curved=1;rounded=0;orthogonalLoop=1;jettySize=auto;html=1;fontSize=17;startSize=8;endSize=8;entryX=0;entryY=0.5;entryDx=0;entryDy=0;" edge="1" parent="1" source="UGxQdcHlr63eqAwbkDjl-41" target="UGxQdcHlr63eqAwbkDjl-44">
          <mxGeometry relative="1" as="geometry">
            <mxPoint x="39" y="-290" as="targetPoint" />
          </mxGeometry>
        </mxCell>
        <mxCell id="UGxQdcHlr63eqAwbkDjl-41" value="发起咨询" style="rounded=0;whiteSpace=wrap;html=1;fontSize=17;" vertex="1" parent="1">
          <mxGeometry x="-157" y="-316" width="103" height="49" as="geometry" />
        </mxCell>
        <mxCell id="UGxQdcHlr63eqAwbkDjl-44" value="回答咨询" style="rounded=0;whiteSpace=wrap;html=1;fontSize=17;" vertex="1" parent="1">
          <mxGeometry x="46" y="-314" width="103" height="49" as="geometry" />
        </mxCell>
        <mxCell id="UGxQdcHlr63eqAwbkDjl-45" value="" style="endArrow=classic;html=1;rounded=0;fontSize=17;startSize=8;endSize=8;exitX=0.5;exitY=0;exitDx=0;exitDy=0;edgeStyle=orthogonalEdgeStyle;entryX=1;entryY=0.5;entryDx=0;entryDy=0;" edge="1" parent="1" source="UGxQdcHlr63eqAwbkDjl-44" target="UGxQdcHlr63eqAwbkDjl-23">
          <mxGeometry width="50" height="50" relative="1" as="geometry">
            <mxPoint x="134" y="-365" as="sourcePoint" />
            <mxPoint x="97" y="-390" as="targetPoint" />
            <Array as="points">
              <mxPoint x="97" y="-374" />
            </Array>
          </mxGeometry>
        </mxCell>
        <mxCell id="UGxQdcHlr63eqAwbkDjl-47" value="客服" style="text;html=1;align=center;verticalAlign=middle;whiteSpace=wrap;rounded=0;fontSize=17;" vertex="1" parent="1">
          <mxGeometry x="89" y="-582" width="60" height="30" as="geometry" />
        </mxCell>
        <mxCell id="UGxQdcHlr63eqAwbkDjl-48" value="" style="endArrow=classic;html=1;rounded=0;fontSize=17;startSize=8;endSize=8;curved=1;exitX=0.5;exitY=1;exitDx=0;exitDy=0;entryX=0.5;entryY=0;entryDx=0;entryDy=0;" edge="1" parent="1" source="UGxQdcHlr63eqAwbkDjl-38" target="UGxQdcHlr63eqAwbkDjl-49">
          <mxGeometry width="50" height="50" relative="1" as="geometry">
            <mxPoint x="-195" y="-45" as="sourcePoint" />
            <mxPoint x="-232" y="-53" as="targetPoint" />
          </mxGeometry>
        </mxCell>
        <mxCell id="UGxQdcHlr63eqAwbkDjl-49" value="绑定银行卡结账" style="rounded=0;whiteSpace=wrap;html=1;fontSize=17;" vertex="1" parent="1">
          <mxGeometry x="-283.5" y="-53" width="103" height="49" as="geometry" />
        </mxCell>
        <mxCell id="UGxQdcHlr63eqAwbkDjl-51" value="" style="endArrow=classic;html=1;rounded=0;fontSize=17;startSize=8;endSize=8;edgeStyle=elbowEdgeStyle;entryX=0;entryY=0.5;entryDx=0;entryDy=0;exitX=0;exitY=0.5;exitDx=0;exitDy=0;" edge="1" parent="1" source="UGxQdcHlr63eqAwbkDjl-38" target="UGxQdcHlr63eqAwbkDjl-23">
          <mxGeometry width="50" height="50" relative="1" as="geometry">
            <mxPoint x="-278.9760000000001" y="-109.97799999999982" as="sourcePoint" />
            <mxPoint x="-270.0379999999998" y="-215.99999999999997" as="targetPoint" />
            <Array as="points">
              <mxPoint x="-326" y="-231" />
              <mxPoint x="-407" y="-134.98" />
            </Array>
          </mxGeometry>
        </mxCell>
        <mxCell id="UGxQdcHlr63eqAwbkDjl-52" value="N" style="edgeLabel;html=1;align=center;verticalAlign=middle;resizable=0;points=[];fontSize=17;" vertex="1" connectable="0" parent="UGxQdcHlr63eqAwbkDjl-51">
          <mxGeometry x="-0.0852" relative="1" as="geometry">
            <mxPoint as="offset" />
          </mxGeometry>
        </mxCell>
        <mxCell id="UGxQdcHlr63eqAwbkDjl-59" value="" style="endArrow=classic;html=1;rounded=0;fontSize=17;startSize=8;endSize=8;curved=1;exitX=1;exitY=0.5;exitDx=0;exitDy=0;entryX=0;entryY=0.5;entryDx=0;entryDy=0;" edge="1" parent="1" source="UGxQdcHlr63eqAwbkDjl-38" target="UGxQdcHlr63eqAwbkDjl-60">
          <mxGeometry width="50" height="50" relative="1" as="geometry">
            <mxPoint x="-36" y="-100" as="sourcePoint" />
            <mxPoint x="-157" y="-122" as="targetPoint" />
          </mxGeometry>
        </mxCell>
        <mxCell id="UGxQdcHlr63eqAwbkDjl-60" value="其他方式结账" style="rounded=0;whiteSpace=wrap;html=1;fontSize=17;" vertex="1" parent="1">
          <mxGeometry x="-159" y="-149" width="103" height="49" as="geometry" />
        </mxCell>
        <mxCell id="UGxQdcHlr63eqAwbkDjl-63" value="" style="endArrow=classic;html=1;rounded=0;fontSize=17;startSize=8;endSize=8;curved=1;exitX=0.5;exitY=1;exitDx=0;exitDy=0;entryX=0.5;entryY=0;entryDx=0;entryDy=0;" edge="1" parent="1" source="UGxQdcHlr63eqAwbkDjl-49" target="UGxQdcHlr63eqAwbkDjl-65">
          <mxGeometry width="50" height="50" relative="1" as="geometry">
            <mxPoint x="-212" y="72" as="sourcePoint" />
            <mxPoint x="-232" y="50" as="targetPoint" />
          </mxGeometry>
        </mxCell>
        <mxCell id="UGxQdcHlr63eqAwbkDjl-64" value="" style="endArrow=classic;html=1;rounded=0;fontSize=17;startSize=8;endSize=8;exitX=0.5;exitY=1;exitDx=0;exitDy=0;edgeStyle=orthogonalEdgeStyle;entryX=1;entryY=0.5;entryDx=0;entryDy=0;" edge="1" parent="1" source="UGxQdcHlr63eqAwbkDjl-60" target="UGxQdcHlr63eqAwbkDjl-65">
          <mxGeometry width="50" height="50" relative="1" as="geometry">
            <mxPoint x="-80" y="22" as="sourcePoint" />
            <mxPoint x="-183" y="82" as="targetPoint" />
            <Array as="points">
              <mxPoint x="-107" y="23" />
              <mxPoint x="-106" y="70" />
            </Array>
          </mxGeometry>
        </mxCell>
        <mxCell id="UGxQdcHlr63eqAwbkDjl-65" value="是否第一次购买" style="rhombus;whiteSpace=wrap;html=1;fontSize=17;" vertex="1" parent="1">
          <mxGeometry x="-259" y="15" width="54" height="53" as="geometry" />
        </mxCell>
        <mxCell id="UGxQdcHlr63eqAwbkDjl-68" value="" style="endArrow=classic;html=1;rounded=0;fontSize=17;startSize=8;endSize=8;curved=1;exitX=0;exitY=0.5;exitDx=0;exitDy=0;entryX=1;entryY=0.5;entryDx=0;entryDy=0;" edge="1" parent="1" source="UGxQdcHlr63eqAwbkDjl-65" target="UGxQdcHlr63eqAwbkDjl-69">
          <mxGeometry width="50" height="50" relative="1" as="geometry">
            <mxPoint x="-262" y="42" as="sourcePoint" />
            <mxPoint x="-307" y="42" as="targetPoint" />
          </mxGeometry>
        </mxCell>
        <mxCell id="UGxQdcHlr63eqAwbkDjl-69" value="填写个人信息" style="rounded=0;whiteSpace=wrap;html=1;fontSize=17;" vertex="1" parent="1">
          <mxGeometry x="-418" y="19" width="103" height="49" as="geometry" />
        </mxCell>
        <mxCell id="UGxQdcHlr63eqAwbkDjl-73" style="edgeStyle=none;curved=1;rounded=0;orthogonalLoop=1;jettySize=auto;html=1;exitX=0.5;exitY=1;exitDx=0;exitDy=0;fontSize=17;startSize=8;endSize=8;" edge="1" parent="1" source="UGxQdcHlr63eqAwbkDjl-47" target="UGxQdcHlr63eqAwbkDjl-47">
          <mxGeometry relative="1" as="geometry" />
        </mxCell>
        <mxCell id="UGxQdcHlr63eqAwbkDjl-74" value="" style="endArrow=classic;html=1;rounded=0;fontSize=17;startSize=8;endSize=8;exitX=0.5;exitY=1;exitDx=0;exitDy=0;edgeStyle=orthogonalEdgeStyle;" edge="1" parent="1" source="UGxQdcHlr63eqAwbkDjl-69">
          <mxGeometry width="50" height="50" relative="1" as="geometry">
            <mxPoint x="-324" y="239" as="sourcePoint" />
            <mxPoint x="-258" y="149" as="targetPoint" />
            <Array as="points">
              <mxPoint x="-366" y="149" />
              <mxPoint x="-269" y="149" />
            </Array>
          </mxGeometry>
        </mxCell>
        <mxCell id="UGxQdcHlr63eqAwbkDjl-75" value="" style="endArrow=classic;html=1;rounded=0;fontSize=17;startSize=8;endSize=8;curved=1;exitX=0.5;exitY=1;exitDx=0;exitDy=0;" edge="1" parent="1" source="UGxQdcHlr63eqAwbkDjl-65">
          <mxGeometry width="50" height="50" relative="1" as="geometry">
            <mxPoint x="-139" y="139" as="sourcePoint" />
            <mxPoint x="-232" y="117" as="targetPoint" />
          </mxGeometry>
        </mxCell>
        <mxCell id="UGxQdcHlr63eqAwbkDjl-76" value="" style="rhombus;whiteSpace=wrap;html=1;fontSize=17;" vertex="1" parent="1">
          <mxGeometry x="-259" y="118" width="54" height="53" as="geometry" />
        </mxCell>
        <mxCell id="UGxQdcHlr63eqAwbkDjl-78" value="商家" style="text;html=1;align=center;verticalAlign=middle;whiteSpace=wrap;rounded=0;fontSize=17;" vertex="1" parent="1">
          <mxGeometry x="399" y="-582" width="60" height="30" as="geometry" />
        </mxCell>
        <mxCell id="UGxQdcHlr63eqAwbkDjl-79" value="更新物流信息" style="rounded=0;whiteSpace=wrap;html=1;fontSize=17;" vertex="1" parent="1">
          <mxGeometry x="356" y="120" width="103" height="49" as="geometry" />
        </mxCell>
        <mxCell id="UGxQdcHlr63eqAwbkDjl-80" value="" style="endArrow=classic;html=1;rounded=0;fontSize=17;startSize=8;endSize=8;curved=1;exitX=1;exitY=0.5;exitDx=0;exitDy=0;entryX=0;entryY=0.5;entryDx=0;entryDy=0;" edge="1" parent="1" source="UGxQdcHlr63eqAwbkDjl-76" target="UGxQdcHlr63eqAwbkDjl-79">
          <mxGeometry width="50" height="50" relative="1" as="geometry">
            <mxPoint x="-128" y="148" as="sourcePoint" />
            <mxPoint x="271" y="137" as="targetPoint" />
          </mxGeometry>
        </mxCell>
        <mxCell id="UGxQdcHlr63eqAwbkDjl-83" value="" style="endArrow=none;html=1;rounded=0;fontSize=17;startSize=8;endSize=8;curved=1;" edge="1" parent="1">
          <mxGeometry width="50" height="50" relative="1" as="geometry">
            <mxPoint x="-6" y="490" as="sourcePoint" />
            <mxPoint x="-6" y="-704" as="targetPoint" />
          </mxGeometry>
        </mxCell>
        <mxCell id="UGxQdcHlr63eqAwbkDjl-84" value="" style="endArrow=none;html=1;rounded=0;fontSize=17;startSize=8;endSize=8;curved=1;" edge="1" parent="1">
          <mxGeometry width="50" height="50" relative="1" as="geometry">
            <mxPoint x="269" y="480" as="sourcePoint" />
            <mxPoint x="262" y="-698" as="targetPoint" />
          </mxGeometry>
        </mxCell>
        <mxCell id="UGxQdcHlr63eqAwbkDjl-85" value="" style="endArrow=classic;html=1;rounded=0;fontSize=17;startSize=8;endSize=8;edgeStyle=orthogonalEdgeStyle;" edge="1" parent="1">
          <mxGeometry width="50" height="50" relative="1" as="geometry">
            <mxPoint x="409" y="250" as="sourcePoint" />
            <mxPoint x="-197" y="281.5" as="targetPoint" />
            <Array as="points">
              <mxPoint x="409" y="274" />
              <mxPoint x="408" y="282" />
            </Array>
          </mxGeometry>
        </mxCell>
        <mxCell id="UGxQdcHlr63eqAwbkDjl-89" value="收货" style="rounded=0;whiteSpace=wrap;html=1;fontSize=17;" vertex="1" parent="1">
          <mxGeometry x="-300" y="259" width="103" height="49" as="geometry" />
        </mxCell>
        <mxCell id="UGxQdcHlr63eqAwbkDjl-90" value="" style="endArrow=classic;html=1;rounded=0;fontSize=17;startSize=8;endSize=8;curved=1;exitX=0.5;exitY=1;exitDx=0;exitDy=0;" edge="1" parent="1" source="UGxQdcHlr63eqAwbkDjl-79">
          <mxGeometry width="50" height="50" relative="1" as="geometry">
            <mxPoint x="474" y="229" as="sourcePoint" />
            <mxPoint x="408" y="196" as="targetPoint" />
          </mxGeometry>
        </mxCell>
        <mxCell id="UGxQdcHlr63eqAwbkDjl-91" value="到货" style="rhombus;whiteSpace=wrap;html=1;fontSize=17;" vertex="1" parent="1">
          <mxGeometry x="380.5" y="197" width="54" height="53" as="geometry" />
        </mxCell>
        <mxCell id="UGxQdcHlr63eqAwbkDjl-92" value="" style="endArrow=classic;html=1;rounded=0;fontSize=17;startSize=8;endSize=8;exitX=1;exitY=0.5;exitDx=0;exitDy=0;edgeStyle=orthogonalEdgeStyle;" edge="1" parent="1" source="UGxQdcHlr63eqAwbkDjl-91">
          <mxGeometry width="50" height="50" relative="1" as="geometry">
            <mxPoint x="588" y="304" as="sourcePoint" />
            <mxPoint x="458" y="134" as="targetPoint" />
            <Array as="points">
              <mxPoint x="511" y="224" />
              <mxPoint x="511" y="134" />
            </Array>
          </mxGeometry>
        </mxCell>
        <mxCell id="UGxQdcHlr63eqAwbkDjl-93" value="N" style="edgeLabel;html=1;align=center;verticalAlign=middle;resizable=0;points=[];fontSize=17;" vertex="1" connectable="0" parent="UGxQdcHlr63eqAwbkDjl-92">
          <mxGeometry x="-0.611" y="-2" relative="1" as="geometry">
            <mxPoint x="1" as="offset" />
          </mxGeometry>
        </mxCell>
        <mxCell id="UGxQdcHlr63eqAwbkDjl-96" value="" style="endArrow=classic;html=1;rounded=0;fontSize=12;startSize=8;endSize=8;curved=1;exitX=0.5;exitY=1;exitDx=0;exitDy=0;entryX=0;entryY=0.5;entryDx=0;entryDy=0;" edge="1" parent="1" source="UGxQdcHlr63eqAwbkDjl-89" target="UGxQdcHlr63eqAwbkDjl-98">
          <mxGeometry width="50" height="50" relative="1" as="geometry">
            <mxPoint x="-220" y="412" as="sourcePoint" />
            <mxPoint x="-249" y="346" as="targetPoint" />
          </mxGeometry>
        </mxCell>
        <mxCell id="UGxQdcHlr63eqAwbkDjl-98" value="" style="rhombus;whiteSpace=wrap;html=1;fontSize=17;direction=south;" vertex="1" parent="1">
          <mxGeometry x="-275" y="325" width="53" height="54" as="geometry" />
        </mxCell>
        <mxCell id="UGxQdcHlr63eqAwbkDjl-100" value="" style="endArrow=classic;html=1;rounded=0;fontSize=12;startSize=8;endSize=8;curved=1;exitX=0.5;exitY=1;exitDx=0;exitDy=0;entryX=1;entryY=0.5;entryDx=0;entryDy=0;" edge="1" parent="1" source="UGxQdcHlr63eqAwbkDjl-98" target="UGxQdcHlr63eqAwbkDjl-101">
          <mxGeometry width="50" height="50" relative="1" as="geometry">
            <mxPoint x="-490" y="315" as="sourcePoint" />
            <mxPoint x="-340" y="352" as="targetPoint" />
          </mxGeometry>
        </mxCell>
        <mxCell id="UGxQdcHlr63eqAwbkDjl-101" value="评价" style="rounded=0;whiteSpace=wrap;html=1;fontSize=17;" vertex="1" parent="1">
          <mxGeometry x="-421" y="327.5" width="103" height="49" as="geometry" />
        </mxCell>
        <mxCell id="UGxQdcHlr63eqAwbkDjl-103" value="" style="endArrow=classic;html=1;rounded=0;fontSize=12;startSize=8;endSize=8;curved=1;exitX=0.5;exitY=0;exitDx=0;exitDy=0;entryX=0;entryY=0.5;entryDx=0;entryDy=0;" edge="1" parent="1" source="UGxQdcHlr63eqAwbkDjl-98" target="UGxQdcHlr63eqAwbkDjl-104">
          <mxGeometry width="50" height="50" relative="1" as="geometry">
            <mxPoint x="-98" y="358" as="sourcePoint" />
            <mxPoint x="-168" y="352" as="targetPoint" />
          </mxGeometry>
        </mxCell>
        <mxCell id="UGxQdcHlr63eqAwbkDjl-104" value="发起售后" style="rounded=0;whiteSpace=wrap;html=1;fontSize=17;" vertex="1" parent="1">
          <mxGeometry x="-189" y="327.5" width="103" height="49" as="geometry" />
        </mxCell>
        <mxCell id="UGxQdcHlr63eqAwbkDjl-105" value="" style="endArrow=classic;html=1;rounded=0;fontSize=12;startSize=8;endSize=8;curved=1;exitX=1;exitY=0.5;exitDx=0;exitDy=0;" edge="1" parent="1" source="UGxQdcHlr63eqAwbkDjl-104">
          <mxGeometry width="50" height="50" relative="1" as="geometry">
            <mxPoint x="-4" y="414" as="sourcePoint" />
            <mxPoint x="40" y="352" as="targetPoint" />
          </mxGeometry>
        </mxCell>
        <mxCell id="UGxQdcHlr63eqAwbkDjl-106" value="处理售后" style="rounded=0;whiteSpace=wrap;html=1;fontSize=17;" vertex="1" parent="1">
          <mxGeometry x="41" y="330" width="103" height="49" as="geometry" />
        </mxCell>
        <mxCell id="UGxQdcHlr63eqAwbkDjl-107" value="" style="endArrow=classic;html=1;rounded=0;fontSize=12;startSize=8;endSize=8;exitX=0.5;exitY=1;exitDx=0;exitDy=0;edgeStyle=orthogonalEdgeStyle;" edge="1" parent="1" source="UGxQdcHlr63eqAwbkDjl-106">
          <mxGeometry width="50" height="50" relative="1" as="geometry">
            <mxPoint x="139" y="450" as="sourcePoint" />
            <mxPoint x="-252" y="428" as="targetPoint" />
          </mxGeometry>
        </mxCell>
        <mxCell id="UGxQdcHlr63eqAwbkDjl-109" value="结束购物" style="ellipse;whiteSpace=wrap;html=1;fontSize=17;" vertex="1" parent="1">
          <mxGeometry x="-300" y="427" width="97" height="49" as="geometry" />
        </mxCell>
        <mxCell id="UGxQdcHlr63eqAwbkDjl-111" style="edgeStyle=none;curved=1;rounded=0;orthogonalLoop=1;jettySize=auto;html=1;exitX=0.75;exitY=0;exitDx=0;exitDy=0;fontSize=12;startSize=8;endSize=8;" edge="1" parent="1" source="UGxQdcHlr63eqAwbkDjl-47" target="UGxQdcHlr63eqAwbkDjl-47">
          <mxGeometry relative="1" as="geometry" />
        </mxCell>
      </root>
    </mxGraphModel>
  </diagram>
</mxfile>
